<svg id="evhAT7Jjp8N1" xmlns="http://www.w3.org/2000/svg" xmlns:xlink="http://www.w3.org/1999/xlink" viewBox="0 0 600 600" shape-rendering="geometricPrecision" text-rendering="geometricPrecision" project-id="976e0a4af64c41028b9ad3c11e8495c0" export-id="6191545ee49d46e998d735de4ea73fbd" cached="false" style="background-color:#fdfdfd"><rect width="65.318097" height="36.34058" rx="0" ry="0" transform="translate(180.000682 86.330468)" fill="#d2dbed" stroke-width="0"/><rect width="65.318097" height="36.34058" rx="0" ry="0" transform="translate(420.890117 86.330468)" fill="#d2dbed" stroke-width="0"/><rect width="65.318097" height="36.34058" rx="0" ry="0" transform="translate(336.578814 86.330468)" fill="#d2dbed" stroke-width="0"/><rect width="65.318097" height="36.34058" rx="0" ry="0" transform="translate(259.772143 86.330468)" fill="#d2dbed" stroke-width="0"/><rect width="65.318097" height="36.34058" rx="0" ry="0" transform="translate(100.321866 86.330468)" fill="#d2dbed" stroke-width="0"/><rect width="65.318097" height="22.699197" rx="0" ry="0" transform="translate(259.772143 6.651653)" fill="#d2dbed" stroke-width="0"/><rect width="65.318097" height="22.699197" rx="0" ry="0" transform="translate(259.772143 6.651653)" fill="#d2dbed" stroke-width="0"/><text dx="0" dy="0" font-family="DejaVu Sans, Arial, Helvetica, sans-serif" font-size="15" font-weight="400" transform="matrix(1.009413 0 0 1 262.939466 22.150916)" stroke-width="0"><tspan y="0" font-size="11" font-weight="400" stroke-width="0"><![CDATA[
Device Root
]]></tspan><tspan x="0" y="48" font-size="15" font-weight="400" stroke-width="0"><![CDATA[
 
]]></tspan></text><line x1="0" y1="-14.800644" x2="0" y2="14.800645" transform="translate(292.431192 44.524587)" fill="none" stroke="#3f5787" stroke-width="3"/><line x1="55.371396" y1="0" x2="-55.371396" y2="0" transform="translate(237.059795 59.325232)" fill="none" stroke="#3f5787" stroke-width="3"/><line x1="-42.096261" y1="0" x2="42.096261" y2="0" transform="translate(334.527452 59.325232)" fill="none" stroke="#3f5787" stroke-width="3"/><line x1="-21.298488" y1="0" x2="21.298488" y2="0" transform="translate(397.922201 59.325232)" fill="none" stroke="#3f5787" stroke-width="3"/><line x1="-15" y1="0" x2="15" y2="0" transform="translate(419.220689 59.325232)" fill="none" stroke="#3f5787" stroke-width="3"/><line x1="0" y1="-13.502617" x2="0" y2="13.502618" transform="translate(292.431191 72.82785)" fill="none" stroke="#3f5787" stroke-width="3"/><line x1="0" y1="-13.502618" x2="0" y2="13.502618" transform="translate(212.659727 72.82785)" fill="none" stroke="#3f5787" stroke-width="3"/><line x1="24.353743" y1="0" x2="-24.353743" y2="0" transform="translate(157.334656 59.325233)" fill="none" stroke="#3f5787" stroke-width="3"/><line x1="0" y1="-13.502617" x2="0" y2="13.502618" transform="translate(132.980913 72.827851)" fill="none" stroke="#3f5787" stroke-width="3"/><line x1="0" y1="-13.502617" x2="0" y2="13.502617" transform="translate(369.237862 72.827851)" fill="none" stroke="#3f5787" stroke-width="3"/><line x1="-9.664238" y1="0" x2="9.664238" y2="0" transform="translate(443.884927 59.325232)" fill="none" stroke="#3f5787" stroke-width="3"/><line x1="0" y1="-13.502618" x2="0" y2="13.502618" transform="translate(453.549165 72.82785)" fill="none" stroke="#3f5787" stroke-width="3"/><text dx="0" dy="0" font-family="DejaVu Sans, Arial, Helvetica, sans-serif" font-size="11" font-weight="400" transform="translate(107.218823 108.227997)" stroke-width="0"><tspan y="0" font-weight="400" stroke-width="0"><![CDATA[
ACPI Root
]]></tspan><tspan x="0" y="33" font-weight="400" stroke-width="0"><![CDATA[
 
]]></tspan></text><text dx="0" dy="0" font-family="DejaVu Sans, Arial, Helvetica, sans-serif" font-size="11" font-weight="400" transform="translate(185.107462 102.727997)" stroke-width="0"><tspan y="0" font-weight="400" stroke-width="0"><![CDATA[
^^PCI Host 
]]></tspan><tspan x="0" y="11" font-weight="400" stroke-width="0"><![CDATA[
Controller
]]></tspan></text><text dx="0" dy="0" font-family="DejaVu Sans, Arial, Helvetica, sans-serif" font-size="11" font-weight="400" transform="translate(273.756171 108.227997)" stroke-width="0"><tspan y="0" font-weight="400" stroke-width="0"><![CDATA[
Generic
]]></tspan></text><text dx="0" dy="0" font-family="DejaVu Sans, Arial, Helvetica, sans-serif" font-size="11" font-weight="400" transform="translate(348.769108 108.227997)" stroke-width="0"><tspan y="0" font-weight="400" stroke-width="0"><![CDATA[
Random
]]></tspan></text><text dx="0" dy="0" font-family="DejaVu Sans, Arial, Helvetica, sans-serif" font-size="11" font-weight="400" transform="translate(443.884927 108.227997)" stroke-width="0"><tspan y="0" font-weight="400" stroke-width="0"><![CDATA[
ISA
]]></tspan><tspan x="0" y="22" font-weight="400" stroke-width="0"><![CDATA[
 
]]></tspan></text><line x1="0" y1="-15.10674" x2="0" y2="15.10674" transform="translate(211.964853 137.777788)" fill="none" stroke="#3f5787" stroke-width="3"/><rect width="65.318097" height="36.34058" rx="0" ry="0" transform="translate(179.305805 152.884528)" fill="#d2dbed" stroke-width="0"/><rect width="65.318097" height="36.34058" rx="0" ry="0" transform="translate(99.62699 245.133694)" fill="#d2dbed" stroke-width="0"/><rect width="65.318097" height="36.34058" rx="0" ry="0" transform="translate(99.62699 312.223997)" fill="#d2dbed" stroke-width="0"/><rect width="65.318097" height="36.34058" rx="0" ry="0" transform="translate(179.3058 375.587061)" fill="#d2dbed" stroke-width="0"/><rect width="65.318097" height="36.34058" rx="0" ry="0" transform="translate(179.3058 312.223997)" fill="#d2dbed" stroke-width="0"/><rect width="65.318097" height="36.34058" rx="0" ry="0" transform="matrix(1.198582 0 0 1 93.836367 470.631656)" fill="#d2dbed" stroke-width="0"/><rect width="65.318097" height="36.34058" rx="0" ry="0" transform="matrix(1.249245 0 0 1 252.929139 470.631656)" fill="#d2dbed" stroke-width="0"/><rect width="65.318097" height="36.34058" rx="0" ry="0" transform="translate(179.305806 245.133694)" fill="#d2dbed" stroke-width="0"/><rect width="65.318097" height="36.34058" rx="0" ry="0" transform="translate(260.374367 245.133694)" fill="#d2dbed" stroke-width="0"/><line x1="0" y1="-15.374861" x2="0" y2="15.374861" transform="translate(211.964854 204.599969)" fill="none" stroke="#3f5787" stroke-width="3"/><line x1="39.839407" y1="0" x2="-39.839407" y2="0" transform="translate(172.125447 219.97483)" fill="none" stroke="#3f5787" stroke-width="3"/><line x1="0" y1="-12.579431" x2="0" y2="12.579431" transform="translate(132.286039 232.554262)" fill="none" stroke="#3f5787" stroke-width="3"/><line x1="0" y1="-12.579431" x2="0" y2="12.579431" transform="translate(211.964854 232.554262)" fill="none" stroke="#3f5787" stroke-width="3"/><line x1="-40.534281" y1="0" x2="40.534281" y2="0" transform="translate(252.499129 219.97483)" fill="none" stroke="#3f5787" stroke-width="3"/><line x1="0" y1="-12.579431" x2="0" y2="12.579431" transform="translate(293.033415 232.554262)" fill="none" stroke="#3f5787" stroke-width="3"/><line x1="0" y1="-15.374862" x2="0" y2="15.374862" transform="translate(132.286039 296.849136)" fill="none" stroke="#3f5787" stroke-width="3"/><line x1="0" y1="-15.374862" x2="0" y2="15.374862" transform="translate(211.964855 296.849136)" fill="none" stroke="#3f5787" stroke-width="3"/><line x1="0" y1="-15.374862" x2="0" y2="15.374862" transform="translate(211.964855 296.849136)" fill="none" stroke="#3f5787" stroke-width="3"/><line x1="39.839408" y1="0" x2="-39.839408" y2="0" transform="translate(172.820324 441.745553)" fill="none" stroke="#3f5787" stroke-width="3"/><line x1="0" y1="-14.443051" x2="0" y2="14.443052" transform="translate(132.980915 456.188604)" fill="none" stroke="#3f5787" stroke-width="3"/><line x1="-39.885734" y1="0" x2="39.885734" y2="0" transform="translate(252.545458 441.745553)" fill="none" stroke="#3f5787" stroke-width="3"/><line x1="0" y1="-12.113527" x2="0" y2="12.113527" transform="translate(292.431194 453.85908)" fill="none" stroke="#3f5787" stroke-width="3"/><line x1="0" y1="-5.124954" x2="0" y2="5.124953" transform="translate(292.431193 465.506702)" fill="none" stroke="#3f5787" stroke-width="3"/><text dx="0" dy="0" font-family="DejaVu Sans, Arial, Helvetica, sans-serif" font-size="30" font-weight="400" transform="translate(210.882696 169.394028)" stroke-width="0"><tspan x="0" y="30" font-weight="400" stroke-width="0"><![CDATA[
 
]]></tspan></text><text dx="0" dy="0" font-family="DejaVu Sans, Arial, Helvetica, sans-serif" font-size="11" font-weight="400" transform="translate(193.109243 174.782057)" stroke-width="0"><tspan y="0" font-weight="400" stroke-width="0"><![CDATA[
PCI Bus
]]></tspan></text><text dx="0" dy="0" font-family="DejaVu Sans, Arial, Helvetica, sans-serif" font-size="11" font-weight="400" transform="translate(100.321866 267.031223)" stroke-width="0"><tspan y="0" font-weight="400" stroke-width="0"><![CDATA[
*PCI device 1 
]]></tspan></text><text dx="0" dy="0" font-family="DejaVu Sans, Arial, Helvetica, sans-serif" font-size="11" font-weight="400" transform="translate(182.181781 267.031223)" stroke-width="0"><tspan y="0" font-weight="400" stroke-width="0"><![CDATA[
PCI device 2
]]></tspan><tspan x="0" y="22" font-weight="400" stroke-width="0"><![CDATA[
 
]]></tspan></text><text dx="0" dy="0" font-family="DejaVu Sans, Arial, Helvetica, sans-serif" font-size="11" font-weight="400" transform="translate(261.530474 267.031223)" stroke-width="0"><tspan y="0" font-weight="400" stroke-width="0"><![CDATA[
PCI device 3 
]]></tspan></text><text dx="0" dy="0" font-family="DejaVu Sans, Arial, Helvetica, sans-serif" font-size="11" font-weight="400" transform="translate(102.707343 328.693645)" stroke-width="0"><tspan y="0" font-weight="400" stroke-width="0"><![CDATA[
^Driver child
]]></tspan><tspan x="0" y="11" font-weight="400" stroke-width="0"><![CDATA[
node 
]]></tspan></text><text dx="0" dy="0" font-family="DejaVu Sans, Arial, Helvetica, sans-serif" font-size="11" font-weight="400" transform="translate(188.305983 328.693645)" stroke-width="0"><tspan y="0" font-weight="400" stroke-width="0"><![CDATA[
UHCI-PCI 
]]></tspan><tspan x="0" y="11" font-weight="400" stroke-width="0"><![CDATA[
Bridge
]]></tspan></text><line x1="-0.347442" y1="-13.511242" x2="0.347442" y2="13.511242" transform="translate(212.31229 362.075819)" fill="none" stroke="#3f5787" stroke-width="3"/><line x1="0" y1="-14.908956" x2="0" y2="14.908956" transform="translate(212.659732 426.836597)" fill="none" stroke="#3f5787" stroke-width="3"/><text dx="0" dy="0" font-family="DejaVu Sans, Arial, Helvetica, sans-serif" font-size="11" font-weight="400" transform="translate(187.508246 392.056709)" stroke-width="0"><tspan y="0" font-weight="400" stroke-width="0"><![CDATA[
UHCI 
]]></tspan><tspan x="0" y="11" font-weight="400" stroke-width="0"><![CDATA[
Controller
]]></tspan></text><text dx="0" dy="0" font-family="DejaVu Sans, Arial, Helvetica, sans-serif" font-size="11" font-weight="400" transform="translate(101.090489 492.529185)" stroke-width="0"><tspan y="0" font-weight="400" stroke-width="0"><![CDATA[
UHCI device 1 
]]></tspan></text><text dx="0" dy="0" font-family="DejaVu Sans, Arial, Helvetica, sans-serif" font-size="11" font-weight="400" transform="translate(261.069243 492.529185)" stroke-width="0"><tspan y="0" font-weight="400" stroke-width="0"><![CDATA[
UHCI device 2 
]]></tspan></text><text dx="0" dy="0" font-family="DejaVu Sans, Arial, Helvetica, sans-serif" font-size="11" font-weight="400" transform="translate(0 549.497197)" stroke-width="0"><tspan y="0" font-weight="400" stroke-width="0"><![CDATA[
^^ PCI Host controller may be a child of ACPI root if the detection
]]></tspan><tspan x="0" y="11" font-weight="400" stroke-width="0"><![CDATA[
mechanism is ACPI instead of Legacy BIOS. Take a look at "busses/pci" for more details.
]]></tspan><tspan x="0" y="22" font-weight="400" stroke-width="0"><![CDATA[
 
]]></tspan></text><line x1="-30" y1="0" x2="30" y2="0" transform="translate(1149.621182 286.300262)" fill="none" stroke="#3f5787" stroke-width="3"/><path d="M240.524211,145.667326c11.098321,6.001347,15.740583,20.036796,0,30.21348" transform="translate(-6.271712-22.996278)" fill="none" stroke="#3f5787" stroke-width="1.2"/><text dx="0" dy="0" font-family="DejaVu Sans, Arial, Helvetica, sans-serif" font-size="11" font-weight="400" transform="translate(249.923981 141.577146)" stroke-width="0"><tspan y="0" font-weight="400" stroke-width="0"><![CDATA[
B_DEVICE_FIXED_CHILD
]]></tspan></text><text dx="0" dy="0" font-family="DejaVu Sans, Arial, Helvetica, sans-serif" font-size="11" font-weight="400" transform="translate(.000006 580.896971)" stroke-width="0"><tspan y="0" font-weight="400" stroke-width="0"><![CDATA[
* This device is exposed by the PCI bus. 
]]></tspan></text><text dx="0" dy="0" font-family="DejaVu Sans, Arial, Helvetica, sans-serif" font-size="11" font-weight="400" transform="translate(0 596.864143)" stroke-width="0"><tspan y="0" font-weight="400" stroke-width="0"><![CDATA[
^ Your driver registers this node.
]]>
</tspan><tspan x="0" y="33" font-weight="400" stroke-width="0"><![CDATA[
]]>
</svg>
